<svg width="75" height="75" viewBox="0 0 75 75" fill="none" xmlns="http://www.w3.org/2000/svg">
<rect width="75" height="75" rx="24" fill="#B3D4FF"/>
<mask id="mask0" mask-type="alpha" maskUnits="userSpaceOnUse" x="0" y="0" width="75" height="75">
<rect width="75" height="75" rx="24" fill="white"/>
</mask>
<g mask="url(#mask0)">
</g>
<path d="M35.4444 27.9408C35.4444 27.9408 23.9232 29.5847 23.0784 26.0066C23.4991 24.1744 23.3132 23.0368 24.3798 20.6028C31.2694 17.9061 36.1098 25.6544 36.1098 25.6544L35.4444 27.9408Z" fill="#008AE8"/>
<path d="M35.4444 27.9408C35.4444 27.9408 29.5105 17.7862 23.0784 26.0066C22.6853 23.6557 22.9716 19.8908 23.6524 17.5505C30.7174 11.4739 36.8657 25.2189 36.8657 25.2189L35.4444 27.9408Z" fill="#008AE8"/>
<path d="M39.5558 27.9408C39.5558 27.9408 51.0779 29.5847 51.9226 26.0066C51.5011 24.1744 51.687 23.0368 50.6204 20.6028C43.7308 17.9061 38.8904 25.6544 38.8904 25.6544L39.5558 27.9408Z" fill="#008AE8"/>
<path d="M39.5558 27.9408C39.5558 27.9408 45.4921 17.7862 51.9226 26.0066C52.3149 23.6557 52.0286 19.8908 51.3478 17.5505C44.2837 11.4739 38.1345 25.2189 38.1345 25.2189L39.5558 27.9408Z" fill="#008AE8"/>
<path d="M40.2938 27.349C39.7287 28.1962 34.9323 28.4246 34.744 27.349C34.5556 26.271 33.8967 23.3093 34.744 22.5061C35.5912 21.7038 39.5403 21.8032 40.2938 22.5061C41.0456 23.2074 40.8573 26.5018 40.2938 27.349Z" fill="#008AE8"/>
<path d="M58 37.435H17V27.7566H58V37.435Z" fill="#0052CC"/>
<path d="M55.9272 60.0142H19.0737V37.4349H55.9272V60.0142Z" fill="#0052CC"/>
<path d="M41.8774 37.435H33.1229V27.7566H41.8774V37.435Z" fill="#008AE8"/>
<path d="M41.4337 60.0142H33.5663V37.4349H41.4337V60.0142Z" fill="#008AE8"/>
</svg>
