<svg width="16" height="17" viewBox="0 0 16 17" fill="none" xmlns="http://www.w3.org/2000/svg">
<path fill-rule="evenodd" clip-rule="evenodd" d="M15.8 14.6403C15.9262 14.7713 15.9972 14.9497 15.9972 15.1358C15.9972 15.3218 15.9262 15.5002 15.8 15.6312L14.8667 16.6082C14.7415 16.7404 14.5711 16.8147 14.3933 16.8147C14.2156 16.8147 14.0452 16.7404 13.92 16.6082L8.00001 10.4112L2.08001 16.6082C1.95483 16.7404 1.78443 16.8147 1.60667 16.8147C1.42891 16.8147 1.25852 16.7404 1.13334 16.6082L0.200007 15.6312C0.0737981 15.5002 0.00280762 15.3218 0.00280762 15.1358C0.00280762 14.9497 0.0737981 14.7713 0.200007 14.6403L6.12001 8.44323L0.200007 2.24618C0.0737981 2.11515 0.00280762 1.93678 0.00280762 1.7507C0.00280762 1.56462 0.0737981 1.38625 0.200007 1.25522L1.13334 0.278205C1.25852 0.14609 1.42891 0.0717773 1.60667 0.0717773C1.78443 0.0717773 1.95483 0.14609 2.08001 0.278205L8.00001 6.47525L13.92 0.278205C14.0452 0.14609 14.2156 0.0717773 14.3933 0.0717773C14.5711 0.0717773 14.7415 0.14609 14.8667 0.278205L15.8 1.25522C15.9262 1.38625 15.9972 1.56462 15.9972 1.7507C15.9972 1.93678 15.9262 2.11515 15.8 2.24618L9.88001 8.44323L15.8 14.6403Z" fill="#060417"/>
</svg>
