<svg width="87" height="70" viewBox="0 0 87 70" fill="none" xmlns="http://www.w3.org/2000/svg">
<path d="M11.7658 37.0852L52.1869 11.3352" stroke="#FBF3F3" stroke-width="22.8464" stroke-linecap="round"/>
<path d="M37.6547 58.0177L74.5975 34.3971" stroke="#FBF3F3" stroke-width="22.8464" stroke-linecap="round"/>
<path d="M15.4196 53.5621L71.0317 18.0235" stroke="#FBF3F3" stroke-width="22.8464" stroke-linecap="round"/>
<path fill-rule="evenodd" clip-rule="evenodd" d="M44.589 22.8809C47.5054 23.0507 50.2395 24.4088 52.2445 26.2761C54.6141 28.6528 55.89 31.5387 55.89 34.9338C55.89 37.65 54.7964 40.1964 52.9736 42.4033C51.1509 44.4404 48.599 45.9682 45.6826 46.4775C42.7662 46.9868 39.8498 46.6472 37.2979 45.2892C34.7461 43.9311 32.741 41.894 31.6474 39.3476C30.5537 36.8012 30.3715 33.9153 31.2828 31.3689C32.1942 28.6528 33.8347 26.4459 36.3866 24.918C38.7561 23.3902 41.6725 22.7112 44.589 22.8809ZM45.5003 44.7799C47.8699 44.2706 50.0572 43.0823 51.6977 41.2149C53.1559 39.3476 54.0673 37.1407 53.885 34.7641C53.885 32.0479 52.7914 29.3318 50.7863 27.4644C48.9636 25.7668 46.7763 24.7483 44.2244 24.5785C41.8548 24.4088 39.303 24.918 37.2979 26.2761C35.2929 27.6342 33.8347 29.5015 33.1056 31.8782C32.3765 34.0851 32.3765 36.4617 33.4702 38.6686C34.5638 40.8754 36.2043 42.573 38.3916 43.7613C40.5789 44.9497 43.1308 45.2892 45.5003 44.7799ZM43.313 33.9153L47.6876 29.6713L48.9636 30.8596L44.589 35.1036L48.9636 39.3476L47.6876 40.5359L43.313 36.2919L38.9384 40.5359L37.6625 39.3476L42.0371 35.1036L37.6625 30.8596L38.9384 29.6713L43.313 33.9153Z" fill="#E02D2D"/>
</svg>
