<svg width="40" height="40" viewBox="0 0 40 40" fill="none" xmlns="http://www.w3.org/2000/svg">
<rect width="40" height="40" rx="10" fill="#56D2D5" fill-opacity="0.2"/>
<mask id="mask0" mask-type="alpha" maskUnits="userSpaceOnUse" x="0" y="0" width="40" height="40">
<rect width="40" height="40" rx="10" fill="white"/>
</mask>
<g mask="url(#mask0)">
<path fill-rule="evenodd" clip-rule="evenodd" d="M27.3197 11.0848L25.0975 7.92572L28.5262 7.1734C28.9599 7.07757 29.4187 7.15543 29.7817 7.38904C30.1267 7.61066 30.3627 7.94609 30.4466 8.33542L30.8778 10.3025L27.3197 11.0848ZM31.4463 16V19.0969L31.4547 31.9114C31.4547 32.5847 30.906 33.1334 30.2327 33.1334H9.76882C9.07998 33.1334 8.51695 32.5703 8.51695 31.8815V16H13.6419L12.5254 18.6691H14.2409L15.3574 16H19.9254L18.8053 18.6691H20.4705L21.587 16H26.1501L25.0336 18.6691H26.6988L27.8189 16H31.4463ZM17.6071 29.7804L22.7872 26.5268L22.7871 26.5269C22.9883 26.4047 23.1057 26.1915 23.1021 25.9555C23.1021 25.7207 22.9823 25.505 22.7846 25.3828L17.5999 22.1338C17.3938 22.0057 17.1327 21.9997 16.917 22.1195C16.7014 22.2393 16.5696 22.4633 16.5696 22.7089L16.5708 29.209C16.5708 29.4534 16.705 29.6786 16.9182 29.7984C17.0224 29.8523 17.1339 29.8822 17.2477 29.8822C17.3735 29.8822 17.4968 29.8487 17.6071 29.7804ZM8.23341 13.2065L8.66467 15.1772L13.6567 14.0799L11.4356 10.922L9.48891 11.3437C8.61677 11.5389 8.05372 12.3739 8.23341 13.2065ZM15.2593 13.7324L13.0394 10.5699L17.4636 9.60075L19.6846 12.7599L15.2593 13.7324ZM19.0688 9.24721L21.2898 12.4097L25.714 11.436L23.4917 8.27684L19.0688 9.24721Z" fill="url(#paint0_linear)"/>
</g>
<defs>
<linearGradient id="paint0_linear" x1="8.2" y1="7.13336" x2="8.2" y2="33.1334" gradientUnits="userSpaceOnUse">
<stop stop-color="#6FE2E4"/>
<stop offset="1" stop-color="#3CC1C5"/>
</linearGradient>
</defs>
</svg>
