<svg width="18" height="19" viewBox="0 0 18 19" fill="none" xmlns="http://www.w3.org/2000/svg">
<path fill-rule="evenodd" clip-rule="evenodd" d="M17 5.57108C17 5.87419 16.8796 6.16488 16.6653 6.3792C16.4509 6.59353 16.1602 6.71394 15.8571 6.71394H13.5714C13.2683 6.71394 12.9776 6.59353 12.7633 6.3792C12.549 6.16488 12.4286 5.87419 12.4286 5.57108C12.4286 5.26798 12.549 4.97729 12.7633 4.76296C12.9776 4.54863 13.2683 4.42822 13.5714 4.42822L15.8571 4.42822C16.1602 4.42822 16.4509 4.54863 16.6653 4.76296C16.8796 4.97729 17 5.26798 17 5.57108V5.57108Z" stroke="#B9B9B9" stroke-linecap="round" stroke-linejoin="round"/>
<path d="M14.75 18L14.75 7" stroke="#B9B9B9" stroke-linecap="round" stroke-linejoin="round"/>
<path d="M14.75 4.42857V1" stroke="#B9B9B9" stroke-linecap="round" stroke-linejoin="round"/>
<path fill-rule="evenodd" clip-rule="evenodd" d="M5.57144 5.57108C5.57144 5.87419 5.45103 6.16488 5.23671 6.3792C5.02238 6.59353 4.73169 6.71394 4.42858 6.71394H2.14287C1.83976 6.71394 1.54907 6.59353 1.33474 6.3792C1.12042 6.16488 1.00001 5.87419 1.00001 5.57108C1.00001 5.26798 1.12042 4.97729 1.33474 4.76296C1.54907 4.54863 1.83976 4.42822 2.14287 4.42822L4.42858 4.42822C4.73169 4.42822 5.02238 4.54863 5.23671 4.76296C5.45103 4.97729 5.57144 5.26798 5.57144 5.57108Z" stroke="#B9B9B9" stroke-linecap="round" stroke-linejoin="round"/>
<path d="M3 18L3 7" stroke="#B9B9B9" stroke-linecap="round" stroke-linejoin="round"/>
<path d="M3.28574 4.42857L3.28574 1" stroke="#B9B9B9" stroke-linecap="round" stroke-linejoin="round"/>
<path fill-rule="evenodd" clip-rule="evenodd" d="M11.2858 13.7141C11.2858 14.0173 11.1654 14.3079 10.951 14.5223C10.7367 14.7366 10.446 14.857 10.1429 14.857H7.85719C7.55409 14.857 7.2634 14.7366 7.04907 14.5223C6.83474 14.3079 6.71433 14.0173 6.71433 13.7141C6.71433 13.411 6.83474 13.1204 7.04907 12.906C7.2634 12.6917 7.55409 12.5713 7.85719 12.5713H10.1429C10.446 12.5713 10.7367 12.6917 10.951 12.906C11.1654 13.1204 11.2858 13.411 11.2858 13.7141V13.7141Z" stroke="#B9B9B9" stroke-linecap="round" stroke-linejoin="round"/>
<path d="M9 12L9 1" stroke="#B9B9B9" stroke-linecap="round" stroke-linejoin="round"/>
<path d="M9 18.286V14.8574" stroke="#B9B9B9" stroke-linecap="round" stroke-linejoin="round"/>
</svg>
