<svg width="40" height="40" viewBox="0 0 40 40" fill="none" xmlns="http://www.w3.org/2000/svg">
<rect opacity="0.15" width="40" height="40" rx="10" fill="#C64C74"/>
<mask id="mask0" mask-type="alpha" maskUnits="userSpaceOnUse" x="0" y="0" width="40" height="40">
<rect width="40" height="40" rx="10" fill="white"/>
</mask>
<g mask="url(#mask0)">
<path fill-rule="evenodd" clip-rule="evenodd" d="M17.5724 18.9789H17.5725L17.5724 18.979C17.5724 18.9789 17.5724 18.9789 17.5724 18.9789ZM17.5724 18.9789C17.3241 13.6657 14.2084 6.78472 10.9353 7.59946C9.79828 7.88469 9.12424 9.00256 8.81599 10.5271L10.3124 10.0641C10.5606 9.98866 10.8177 10.1294 10.897 10.3775C10.9724 10.6205 10.8317 10.8827 10.5887 10.962L8.66635 11.5516C8.62415 12.0249 8.61008 12.5199 8.61903 13.0302L11.5007 12.2027C11.7526 12.1323 12.0097 12.2769 12.0801 12.525C12.1504 12.7718 12.011 13.0302 11.7603 13.1044L8.6638 13.9933C8.69706 14.4601 8.75334 14.9423 8.82752 15.4194L12.6915 14.3437C12.9345 14.2734 13.1967 14.4179 13.2671 14.6661C13.3374 14.9142 13.1929 15.1713 12.9448 15.2416L8.98744 16.3454C9.0808 16.8186 9.19336 17.2817 9.31998 17.7395L13.8811 16.481C14.1292 16.4106 14.3863 16.5551 14.4566 16.8084C14.5219 17.0565 14.3773 17.3136 14.1292 17.3839L9.58742 18.6323C9.62452 18.7499 9.66672 18.8663 9.70893 18.9789H17.5724ZM22.5542 13.4511C22.5913 13.0149 22.4454 12.5801 22.1513 12.2577L22.1513 12.2579C21.8571 11.9356 21.4363 11.7527 21.0002 11.7539H20.0831V9.80344C20.0831 9.068 20.6779 8.47453 21.412 8.47453H22.1935C22.4557 8.47453 22.6616 8.26349 22.6616 8.0064C22.6616 7.74932 22.4557 7.53828 22.1935 7.53828H21.412C20.1637 7.53828 19.1481 8.55383 19.1481 9.80216V11.7539H18.2272C17.7924 11.7539 17.3754 11.9368 17.0812 12.2592L17.0658 12.2772L17.0658 12.2772L17.0658 12.2772C17.0508 12.2947 17.0354 12.3124 17.025 12.3295C17.8576 14.4103 18.414 16.8047 18.5073 18.9803H21.2675C21.4312 18.1617 21.7497 17.3943 22.2076 16.7023L22.2197 16.6844L22.2197 16.6843C22.2345 16.6624 22.2488 16.6411 22.2638 16.623L22.5542 13.4511ZM34.5233 35.5333C34.7804 35.5333 34.9914 35.3223 34.9914 35.0652L34.9912 35.0652C34.9912 34.8081 34.7814 34.5984 34.523 34.5984H30.2946L33.0496 24.5273H8.89022L11.6504 34.5971H7.42193C7.16484 34.5971 6.9538 34.8081 6.9538 35.0652C6.9538 35.3223 7.16485 35.5333 7.42193 35.5333H34.5233ZM27.0169 14.8349V14.0867C24.7441 13.8526 22.9662 11.9251 22.9662 9.59108C22.9662 9.334 23.1722 9.12296 23.4344 9.12296C24.6418 9.12296 25.7737 9.59491 26.6294 10.4468C26.9798 10.7972 27.2701 11.2039 27.485 11.635C27.6999 11.2052 27.9851 10.7972 28.3407 10.4468C29.1926 9.59491 30.3283 9.12296 31.5357 9.12296C31.7928 9.12296 32.0038 9.334 32.0038 9.59108C32.0038 11.9253 30.226 13.8529 27.9532 14.0867V14.8298C30.2874 15.0306 32.215 16.7292 32.7432 18.979H22.2284C22.3729 18.3523 22.6313 17.7575 22.9856 17.2203C23.9014 15.8403 25.3838 14.9808 27.0169 14.8349H27.0169Z" fill="url(#paint0_linear)"/>
<path d="M35.9367 20.3872V23.123C35.9367 23.3852 35.7308 23.5911 35.4686 23.5911H6.46813C6.21104 23.5911 6 23.3852 6 23.123V20.3872C6 20.125 6.21104 19.919 6.44894 19.9139H35.4494C35.7308 19.9191 35.9367 20.125 35.9367 20.3872Z" fill="white"/>
</g>
<defs>
<linearGradient id="paint0_linear" x1="6.9538" y1="7.53333" x2="6.9538" y2="35.5333" gradientUnits="userSpaceOnUse">
<stop stop-color="#E74C83"/>
<stop offset="1" stop-color="#C64C74"/>
</linearGradient>
</defs>
</svg>
