<svg width="75" height="75" viewBox="0 0 75 75" fill="none" xmlns="http://www.w3.org/2000/svg">
<rect width="75" height="75" rx="24" fill="#FFBDAD"/>
<mask id="mask0" mask-type="alpha" maskUnits="userSpaceOnUse" x="0" y="0" width="75" height="75">
<rect width="75" height="75" rx="24" fill="white"/>
</mask>
<g mask="url(#mask0)">
</g>
<path d="M49.2771 20.7396C49.2771 21.1568 49.2564 21.5732 49.2158 21.9879C49.1751 22.4034 49.1138 22.8156 49.0325 23.2245C48.9512 23.6343 48.85 24.0382 48.7289 24.4371C48.6078 24.8369 48.4668 25.2292 48.3076 25.6149C48.1475 25.9997 47.9692 26.3771 47.7726 26.7445C47.576 27.1128 47.3621 27.4703 47.1298 27.817C46.8984 28.1636 46.6504 28.4987 46.385 28.8214C46.1204 29.144 45.8409 29.4525 45.5457 29.7478C45.2504 30.0431 44.9419 30.3226 44.6192 30.5872C44.2966 30.8517 43.9623 31.1006 43.6156 31.332C43.2681 31.5634 42.9106 31.7782 42.5432 31.9748C42.175 32.1713 41.7984 32.3496 41.4127 32.5089C41.0271 32.669 40.6348 32.8091 40.2358 32.9302C39.836 33.0513 39.4321 33.1525 39.0232 33.2338C38.6135 33.3159 38.2013 33.3764 37.7866 33.4179C37.371 33.4586 36.9547 33.4793 36.5375 33.4793C36.1203 33.4793 35.7039 33.4586 35.2884 33.4179C34.8737 33.3764 34.4615 33.3159 34.0518 33.2338C33.6429 33.1525 33.239 33.0513 32.8392 32.9302C32.4402 32.8091 32.0479 32.669 31.6623 32.5089C31.2766 32.3496 30.9 32.1713 30.5318 31.9748C30.1644 31.7782 29.8069 31.5634 29.4594 31.332C29.1127 31.1006 28.7784 30.8517 28.4558 30.5872C28.1331 30.3226 27.8246 30.0431 27.5293 29.7478C27.2341 29.4525 26.9546 29.144 26.69 28.8214C26.4246 28.4987 26.1766 28.1636 25.9452 27.817C25.7129 27.4703 25.499 27.1128 25.3024 26.7445C25.1058 26.3771 24.9275 25.9997 24.7674 25.6149C24.6082 25.2292 24.4672 24.8369 24.3461 24.4371C24.225 24.0382 24.1238 23.6343 24.0425 23.2245C23.9612 22.8156 23.8999 22.4034 23.8592 21.9879C23.8186 21.5732 23.7979 21.1568 23.7979 20.7396C23.7979 20.3225 23.8186 19.9061 23.8592 19.4906C23.8999 19.075 23.9612 18.6628 24.0425 18.2539C24.1238 17.845 24.225 17.4403 24.3461 17.0413C24.4672 16.6416 24.6082 16.2493 24.7674 15.8644C24.9275 15.4787 25.1058 15.1022 25.3024 14.7339C25.499 14.3657 25.7129 14.0082 25.9452 13.6615C26.1766 13.3148 26.4246 12.9797 26.69 12.6571C26.9546 12.3345 27.2341 12.0259 27.5293 11.7307C27.8246 11.4362 28.1331 11.1559 28.4558 10.8913C28.7784 10.6267 29.1127 10.3787 29.4594 10.1465C29.8069 9.91509 30.1644 9.70028 30.5318 9.50371C30.9 9.30714 31.2766 9.12882 31.6623 8.96957C32.0479 8.8095 32.4402 8.66933 32.8392 8.54824C33.239 8.42714 33.6429 8.32596 34.0518 8.24467C34.4615 8.16339 34.8737 8.10202 35.2884 8.06138C35.7039 8.01991 36.1203 8 36.5375 8C36.9547 8 37.371 8.01991 37.7866 8.06138C38.2013 8.10202 38.6135 8.16339 39.0232 8.24467C39.4321 8.32596 39.836 8.42714 40.2358 8.54824C40.6348 8.66933 41.0271 8.8095 41.4127 8.96957C41.7984 9.12882 42.175 9.30714 42.5432 9.50371C42.9106 9.70028 43.2681 9.91509 43.6156 10.1465C43.9623 10.3787 44.2966 10.6267 44.6192 10.8913C44.9419 11.1559 45.2504 11.4362 45.5457 11.7307C45.8409 12.0259 46.1204 12.3345 46.385 12.6571C46.6504 12.9797 46.8984 13.3148 47.1298 13.6615C47.3621 14.0082 47.576 14.3657 47.7726 14.7339C47.9692 15.1022 48.1475 15.4787 48.3076 15.8644C48.4668 16.2493 48.6078 16.6416 48.7289 17.0413C48.85 17.4403 48.9512 17.845 49.0325 18.2539C49.1138 18.6628 49.1751 19.075 49.2158 19.4906C49.2564 19.9061 49.2771 20.3225 49.2771 20.7396Z" fill="#F7F7F7"/>
<path d="M33.1851 13.3636H41.9013V15.3749H33.1851V13.3636Z" fill="#E6856D"/>
<path d="M32.1737 16.7163H42.9012V18.7276H32.1737V16.7163Z" fill="#E6856D"/>
<path d="M35.1521 22.751H35.1903C37.6196 22.751 40.2198 20.8649 40.2198 18.0574C40.2198 15.2498 37.6196 13.3638 35.1903 13.3638H32.1737V15.3751H35.1903C36.4559 15.3751 38.2076 16.3073 38.2076 18.0574C38.2076 19.8074 36.4559 20.7397 35.1903 20.7397H32.1737V22.8862L39.2527 28.7857H42.3936L35.1521 22.751Z" fill="#E6856D"/>
<path d="M43.3038 54.6272V37.9637H30.7283V54.6272H22.0461L37.0161 67.8579L51.9868 54.6272H43.3038Z" fill="#F38246"/>
</svg>
