<svg width="40" height="25" viewBox="0 0 40 25" fill="none" xmlns="http://www.w3.org/2000/svg">
<rect x="14" y="2.66992" width="12" height="19.66" fill="#FF5F00"/>
<path d="M15.2785 12.4983C15.2756 8.66326 17.0166 5.03983 20 2.67203C14.9317 -1.35567 7.65331 -0.768999 3.27999 4.01974C-1.09333 8.80848 -1.09333 16.1915 3.27999 20.9803C7.65331 25.769 14.9317 26.3557 20 22.328C17.0156 19.9594 15.2745 16.3345 15.2785 12.4983Z" fill="#EB001B"/>
<path d="M40 12.5017C39.9999 17.287 37.2977 21.6522 33.0409 23.7434C28.7842 25.8345 23.7204 25.2845 20 22.3269C22.9818 19.9574 24.7228 16.3348 24.7228 12.5C24.7228 8.6652 22.9818 5.04265 20 2.67309C23.7204 -0.284491 28.7842 -0.834507 33.0409 1.25664C37.2977 3.34778 39.9999 7.71296 40 12.4983V12.5017Z" fill="#F79E1B"/>
</svg>
