<svg width="40" height="40" viewBox="0 0 40 40" fill="none" xmlns="http://www.w3.org/2000/svg">
<rect width="40" height="40" rx="10" fill="#FFBDAD"/>
<mask id="mask0" mask-type="alpha" maskUnits="userSpaceOnUse" x="0" y="0" width="40" height="40">
<rect width="40" height="40" rx="10" fill="white"/>
</mask>
<g mask="url(#mask0)">
<path fill-rule="evenodd" clip-rule="evenodd" d="M20.8013 9.90124C20.6888 9.71499 20.4868 9.60082 20.2688 9.59999C20.0509 9.59874 19.8484 9.71207 19.7343 9.89749L10.8676 24.3196L11.7817 26.1417C12.9946 27.3287 15.6788 29.2667 20.2668 29.2667C24.8352 29.2667 27.513 27.3505 28.7373 26.1565L29.6375 24.3075C29.4238 23.9646 20.8313 9.95124 20.8013 9.90124Z" fill="url(#paint0_linear)"/>
<path fill-rule="evenodd" clip-rule="evenodd" d="M20.8917 17.8083C20.8917 18.1535 20.6119 18.4333 20.2667 18.4333C19.9215 18.4333 19.6417 18.1535 19.6417 17.8083C19.6417 17.4631 19.9216 17.1833 20.2667 17.1833C20.6119 17.1833 20.8917 17.4631 20.8917 17.8083ZM23.3917 20.3083C23.3917 20.6535 23.1119 20.9333 22.7667 20.9333C22.4215 20.9333 22.1417 20.6535 22.1417 20.3083C22.1417 19.9631 22.4216 19.6833 22.7667 19.6833C23.1119 19.6833 23.3917 19.9631 23.3917 20.3083ZM20.2667 23.4333C20.6119 23.4333 20.8917 23.1535 20.8917 22.8083C20.8917 22.4631 20.6119 22.1833 20.2667 22.1833C19.9216 22.1833 19.6417 22.4631 19.6417 22.8083C19.6417 23.1535 19.9215 23.4333 20.2667 23.4333ZM30.8376 26.2258C30.8276 26.21 30.3605 25.4658 29.6376 24.3075C27.2824 27.2257 23.9106 28.4333 20.2667 28.4333C15.5442 28.4333 13.0307 26.6386 10.8676 24.3195L9.69258 26.2308C9.5405 26.4787 9.57883 26.7983 9.7855 27.0029C11.6162 28.8151 15.7002 30.9333 20.2667 30.9333C25.006 30.9333 29.0214 28.712 30.748 27.0029C30.9559 26.7966 30.9934 26.4737 30.8376 26.2258ZM23.3917 25.3083C23.3917 25.6535 23.1119 25.9333 22.7667 25.9333C22.4215 25.9333 22.1417 25.6535 22.1417 25.3083C22.1417 24.9631 22.4216 24.6833 22.7667 24.6833C23.1119 24.6833 23.3917 24.9631 23.3917 25.3083ZM25.2667 23.4333C25.6119 23.4333 25.8917 23.1535 25.8917 22.8083C25.8917 22.4631 25.6119 22.1833 25.2667 22.1833C24.9216 22.1833 24.6417 22.4631 24.6417 22.8083C24.6417 23.1535 24.9215 23.4333 25.2667 23.4333ZM18.3917 25.3083C18.3917 25.6535 18.1119 25.9333 17.7667 25.9333C17.4215 25.9333 17.1417 25.6535 17.1417 25.3083C17.1417 24.9631 17.4216 24.6833 17.7667 24.6833C18.1119 24.6833 18.3917 24.9631 18.3917 25.3083ZM15.2667 23.4333C15.6119 23.4333 15.8917 23.1535 15.8917 22.8083C15.8917 22.4631 15.6119 22.1833 15.2667 22.1833C14.9216 22.1833 14.6417 22.4631 14.6417 22.8083C14.6417 23.1535 14.9215 23.4333 15.2667 23.4333ZM17.7667 20.9333C18.1119 20.9333 18.3917 20.6535 18.3917 20.3083C18.3917 19.9631 18.1119 19.6833 17.7667 19.6833C17.4216 19.6833 17.1417 19.9631 17.1417 20.3083C17.1417 20.6535 17.4215 20.9333 17.7667 20.9333Z" fill="#FFEBE5"/>
</g>
<defs>
<linearGradient id="paint0_linear" x1="10.8676" y1="9.59998" x2="10.8676" y2="29.2667" gradientUnits="userSpaceOnUse">
<stop stop-color="#F1651A"/>
<stop offset="1" stop-color="#DE350B"/>
</linearGradient>
</defs>
</svg>
