<svg width="75" height="75" viewBox="0 0 75 75" fill="none" xmlns="http://www.w3.org/2000/svg">
<rect width="75" height="75" rx="24" fill="#C0B6F2"/>
<path d="M45.7037 30.9125L37.7757 54.7047L29.8503 30.9125H45.7037Z" fill="#5243AA"/>
<path d="M29.8503 30.9125L37.7757 54.7047L14 30.9125H29.8503Z" fill="#8373DF"/>
<path d="M45.7037 30.9125L37.7757 54.7047L61.5556 30.9125H45.7037Z" fill="#8373DF"/>
<path d="M14 30.9126L23.9059 21L29.8503 30.9126H14Z" fill="#5243AA"/>
<path d="M29.8503 30.9126L37.7757 21L45.7037 30.9126H29.8503Z" fill="#8373DF"/>
<path d="M23.9059 21L29.8503 30.9126L37.7758 21H23.9059Z" fill="#B7A6FF"/>
<path d="M51.6492 21L45.7037 30.9126L37.7757 21H51.6492Z" fill="#B7A6FF"/>
<path d="M61.5556 30.9126L51.6492 21L45.7037 30.9126H61.5556Z" fill="#5243AA"/>
</svg>
