<svg width="32" height="32" viewBox="0 0 32 32" fill="none" xmlns="http://www.w3.org/2000/svg">
<circle cx="16" cy="16" r="16" fill="#4D2D8F"/>
<path d="M16 8C15.3977 8 14.9091 8.48865 14.9091 9.09091V14.9091H9.09091C8.48865 14.9091 8 15.3977 8 16C8 16.6023 8.48865 17.0909 9.09091 17.0909H14.9091V22.9091C14.9091 23.5113 15.3977 24 16 24C16.6023 24 17.0909 23.5113 17.0909 22.9091V17.0909H22.9091C23.5113 17.0909 24 16.6023 24 16C24 15.3977 23.5113 14.9091 22.9091 14.9091H17.0909V9.09091C17.0909 8.48865 16.6023 8 16 8Z" fill="white"/>
</svg>
