<svg width="40" height="40" viewBox="0 0 40 40" fill="none" xmlns="http://www.w3.org/2000/svg">
<rect width="40" height="40" rx="10" fill="#B3D4FF"/>
<path fill-rule="evenodd" clip-rule="evenodd" d="M32.875 28.7131L29.9464 11.1459C29.8737 10.7078 29.4941 10.3867 29.0507 10.3867H10.8866C10.4432 10.3867 10.0635 10.7078 9.99082 11.1459L7.06223 28.7131C6.84227 30.0319 7.21124 31.373 8.07688 32.3938C8.9407 33.4146 10.2055 34 11.5429 34H28.3943C29.7318 34 30.9966 33.4146 31.8604 32.3938C32.726 31.3729 33.095 30.0319 32.875 28.7131Z" fill="url(#paint0_linear)"/>
<path fill-rule="evenodd" clip-rule="evenodd" d="M18.2123 3H21.8451C24.3497 3 26.3861 5.03722 26.3861 7.54101V14.9277C26.3861 15.4297 25.9799 15.8359 25.4779 15.8359C24.9759 15.8359 24.5697 15.4297 24.5697 14.9277V7.54101C24.5697 6.0386 23.3475 4.8164 21.8451 4.8164H18.2123C16.7099 4.8164 15.4877 6.0386 15.4877 7.54101V14.9277C15.4877 15.4297 15.0815 15.8359 14.5795 15.8359C14.0775 15.8359 13.6713 15.4297 13.6713 14.9277V7.54101C13.6713 5.03722 15.7076 3 18.2123 3ZM19.9687 20.4983C20.4848 19.9245 21.2228 19.4686 22.2214 19.4686C23.9935 19.4686 25.3824 20.9418 25.3823 22.8229C25.3823 24.7888 23.9279 26.0195 21.7272 27.8818L21.7229 27.8854C21.3593 28.1913 20.9726 28.5187 20.5629 28.8734C20.3926 29.0215 20.1815 29.0951 19.9687 29.0951C19.7558 29.0951 19.5448 29.0215 19.3744 28.8734C19.0146 28.5615 18.6686 28.2697 18.3415 27.9938C18.2994 27.9583 18.2576 27.9231 18.2161 27.8881L18.2122 27.8847C16.0891 26.0922 14.5549 24.7968 14.5549 22.8229C14.5549 20.9418 15.9438 19.4686 17.7159 19.4686C18.7145 19.4686 19.4525 19.9245 19.9687 20.4983Z" fill="#DEEBFF"/>
<defs>
<linearGradient id="paint0_linear" x1="7" y1="10.3867" x2="7" y2="34" gradientUnits="userSpaceOnUse">
<stop stop-color="#008AE8"/>
<stop offset="1" stop-color="#0052CC"/>
</linearGradient>
</defs>
</svg>
