<svg width="41" height="9" viewBox="0 0 41 9" fill="none" xmlns="http://www.w3.org/2000/svg">
<path fill-rule="evenodd" clip-rule="evenodd" d="M6.58434 3.23209C7.01558 3.29846 7.18814 3.86507 6.87667 4.19066L5.77807 5.33908C5.65428 5.46851 5.59811 5.65442 5.62743 5.83701L5.88889 7.45626C5.96298 7.91557 5.51291 8.26623 5.12705 8.04995L3.76632 7.28688C3.61321 7.20103 3.43016 7.20103 3.27705 7.28754L1.91822 8.05392C1.53298 8.27118 1.08167 7.92151 1.15483 7.46221L1.41258 5.84228C1.4416 5.66001 1.3848 5.47378 1.2607 5.34468L0.159892 4.19921C-0.1525 3.8743 0.0191333 3.30734 0.450063 3.23997L1.97002 3.0019C2.14104 2.97515 2.2889 2.85991 2.36545 2.69383L3.04364 1.21921C3.23596 0.80118 3.79314 0.800521 3.98641 1.21788L4.66799 2.69056C4.74455 2.85632 4.89272 2.97123 5.06373 2.99764L6.58434 3.23209Z" fill="white"/>
<path fill-rule="evenodd" clip-rule="evenodd" d="M14.6771 3.22965C15.1084 3.29602 15.2809 3.86263 14.9694 4.18822L13.8708 5.33664C13.7471 5.46607 13.6909 5.65198 13.7202 5.83457L13.9817 7.45382C14.0558 7.91312 13.6057 8.26379 13.2198 8.04751L11.8591 7.28443C11.706 7.19859 11.5229 7.19859 11.3698 7.28509L10.011 8.05148C9.62575 8.26874 9.17444 7.91907 9.2476 7.45977L9.50536 5.83984C9.53437 5.65757 9.47757 5.47134 9.35348 5.34223L8.25267 4.19677C7.94027 3.87185 8.11191 3.3049 8.54284 3.23753L10.0628 2.99946C10.2338 2.97271 10.3817 2.85747 10.4582 2.69139L11.1364 1.21676C11.3287 0.798738 11.8859 0.798079 12.0792 1.21544L12.7608 2.68812C12.8373 2.85388 12.9855 2.96879 13.1565 2.9952L14.6771 3.22965Z" fill="white"/>
<path opacity="0.4" fill-rule="evenodd" clip-rule="evenodd" d="M40.3091 3.22965C40.7403 3.29602 40.9129 3.86263 40.6014 4.18822L39.5028 5.33664C39.379 5.46607 39.3228 5.65198 39.3522 5.83457L39.6136 7.45382C39.6877 7.91312 39.2376 8.26379 38.8518 8.04751L37.4911 7.28443C37.3379 7.19859 37.1549 7.19859 37.0018 7.28509L35.643 8.05148C35.2577 8.26874 34.8064 7.91907 34.8796 7.45977L35.1373 5.83984C35.1663 5.65757 35.1095 5.47134 34.9854 5.34223L33.8846 4.19677C33.5722 3.87185 33.7439 3.3049 34.1748 3.23753L35.6948 2.99946C35.8658 2.97271 36.0136 2.85747 36.0902 2.69139L36.7684 1.21676C36.9607 0.798738 37.5179 0.798079 37.7111 1.21544L38.3927 2.68812C38.4693 2.85388 38.6175 2.96879 38.7885 2.9952L40.3091 3.22965Z" fill="white"/>
<path fill-rule="evenodd" clip-rule="evenodd" d="M23.4464 3.22965C23.8776 3.29602 24.0502 3.86263 23.7387 4.18822L22.6401 5.33664C22.5163 5.46607 22.4602 5.65198 22.4895 5.83457L22.751 7.45382C22.825 7.91312 22.375 8.26379 21.9891 8.04751L20.6284 7.28443C20.4753 7.19859 20.2922 7.19859 20.1391 7.28509L18.7803 8.05148C18.395 8.26874 17.9437 7.91907 18.0169 7.45977L18.2746 5.83984C18.3037 5.65757 18.2469 5.47134 18.1228 5.34223L17.022 4.19677C16.7096 3.87185 16.8812 3.3049 17.3121 3.23753L18.8321 2.99946C19.0031 2.97271 19.151 2.85747 19.2275 2.69139L19.9057 1.21676C20.098 0.798738 20.6552 0.798079 20.8485 1.21544L21.5301 2.68812C21.6066 2.85388 21.7548 2.96879 21.9258 2.9952L23.4464 3.22965Z" fill="white"/>
<path fill-rule="evenodd" clip-rule="evenodd" d="M31.5403 3.22965C31.9715 3.29602 32.1441 3.86263 31.8326 4.18822L30.734 5.33664C30.6102 5.46607 30.554 5.65198 30.5834 5.83457L30.8448 7.45382C30.9189 7.91312 30.4688 8.26379 30.083 8.04751L28.7223 7.28443C28.5691 7.19859 28.3861 7.19859 28.233 7.28509L26.8742 8.05148C26.4889 8.26874 26.0376 7.91907 26.1108 7.45977L26.3685 5.83984C26.3975 5.65757 26.3407 5.47134 26.2166 5.34223L25.1158 4.19677C24.8034 3.87185 24.9751 3.3049 25.406 3.23753L26.926 2.99946C27.097 2.97271 27.2448 2.85747 27.3214 2.69139L27.9996 1.21676C28.1919 0.798738 28.7491 0.798079 28.9423 1.21544L29.6239 2.68812C29.7005 2.85388 29.8487 2.96879 30.0197 2.9952L31.5403 3.22965Z" fill="white"/>
</svg>
