<svg width="24" height="24" viewBox="0 0 20 18" fill="none" xmlns="http://www.w3.org/2000/svg">
<path fill-rule="evenodd" clip-rule="evenodd" d="M18.1107 5.80514C19.2739 5.97073 19.7393 7.38437 18.8992 8.19666L15.9361 11.0619C15.6022 11.3848 15.4507 11.8486 15.5298 12.3041L16.235 16.344C16.4348 17.4899 15.2209 18.3648 14.1802 17.8252L10.5101 15.9214C10.0971 15.7072 9.60341 15.7072 9.19045 15.923L5.52547 17.8351C4.4864 18.3771 3.26915 17.5047 3.46648 16.3588L4.16168 12.3173C4.23995 11.8625 4.08675 11.3979 3.75205 11.0758L0.782976 8.21801C-0.0595961 7.40738 0.403327 5.99288 1.56561 5.8248L5.66519 5.23084C6.12645 5.16411 6.52526 4.87661 6.73173 4.46225L8.56091 0.783225C9.07962 -0.259702 10.5824 -0.261347 11.1037 0.77993L12.942 4.4541C13.1485 4.86764 13.5482 5.15433 14.0094 5.22023L18.1107 5.80514Z" fill="#F6CB61"/>
</svg>
