<svg width="40" height="40" viewBox="0 0 40 40" fill="none" xmlns="http://www.w3.org/2000/svg">
<rect width="40" height="40" rx="10" fill="#B3D4FF"/>
<mask id="mask0" mask-type="alpha" maskUnits="userSpaceOnUse" x="0" y="0" width="40" height="40">
<rect width="40" height="40" rx="10" fill="white"/>
</mask>
<g mask="url(#mask0)">
<path d="M8.99992 14.8333C8.99992 14.0819 9.29843 13.3612 9.82978 12.8299C10.3611 12.2985 11.0818 12 11.8332 12H28.8333C29.5847 12 30.3054 12.2985 30.8367 12.8299C31.3681 13.3612 31.6666 14.0819 31.6666 14.8333V26.1667C31.6666 26.9181 31.3681 27.6388 30.8367 28.1701C30.3054 28.7015 29.5847 29 28.8333 29H11.8332C11.0818 29 10.3611 28.7015 9.82978 28.1701C9.29843 27.6388 8.99992 26.9181 8.99992 26.1667V14.8333ZM12.5416 16.25C12.3537 16.25 12.1736 16.3246 12.0407 16.4575C11.9079 16.5903 11.8332 16.7705 11.8332 16.9583V18.375C11.8332 18.5629 11.9079 18.743 12.0407 18.8759C12.1736 19.0087 12.3537 19.0833 12.5416 19.0833H15.3749C15.5628 19.0833 15.7429 19.0087 15.8758 18.8759C16.0086 18.743 16.0833 18.5629 16.0833 18.375V16.9583C16.0833 16.7705 16.0086 16.5903 15.8758 16.4575C15.7429 16.3246 15.5628 16.25 15.3749 16.25H12.5416ZM12.5416 20.5C12.3537 20.5 12.1736 20.5746 12.0407 20.7075C11.9079 20.8403 11.8332 21.0205 11.8332 21.2083C11.8332 21.3962 11.9079 21.5764 12.0407 21.7092C12.1736 21.842 12.3537 21.9167 12.5416 21.9167H19.6249C19.8128 21.9167 19.9929 21.842 20.1258 21.7092C20.2586 21.5764 20.3333 21.3962 20.3333 21.2083C20.3333 21.0205 20.2586 20.8403 20.1258 20.7075C19.9929 20.5746 19.8128 20.5 19.6249 20.5H12.5416ZM12.5416 23.3333C12.3537 23.3333 12.1736 23.408 12.0407 23.5408C11.9079 23.6736 11.8332 23.8538 11.8332 24.0417C11.8332 24.2295 11.9079 24.4097 12.0407 24.5425C12.1736 24.6754 12.3537 24.75 12.5416 24.75H13.9582C14.1461 24.75 14.3263 24.6754 14.4591 24.5425C14.592 24.4097 14.6666 24.2295 14.6666 24.0417C14.6666 23.8538 14.592 23.6736 14.4591 23.5408C14.3263 23.408 14.1461 23.3333 13.9582 23.3333H12.5416ZM16.7916 23.3333C16.6037 23.3333 16.4236 23.408 16.2907 23.5408C16.1579 23.6736 16.0833 23.8538 16.0833 24.0417C16.0833 24.2295 16.1579 24.4097 16.2907 24.5425C16.4236 24.6754 16.6037 24.75 16.7916 24.75H18.2083C18.3961 24.75 18.5763 24.6754 18.7091 24.5425C18.842 24.4097 18.9166 24.2295 18.9166 24.0417C18.9166 23.8538 18.842 23.6736 18.7091 23.5408C18.5763 23.408 18.3961 23.3333 18.2083 23.3333H16.7916ZM21.0416 23.3333C20.8537 23.3333 20.6736 23.408 20.5407 23.5408C20.4079 23.6736 20.3333 23.8538 20.3333 24.0417C20.3333 24.2295 20.4079 24.4097 20.5407 24.5425C20.6736 24.6754 20.8537 24.75 21.0416 24.75H22.4583C22.6461 24.75 22.8263 24.6754 22.9591 24.5425C23.092 24.4097 23.1666 24.2295 23.1666 24.0417C23.1666 23.8538 23.092 23.6736 22.9591 23.5408C22.8263 23.408 22.6461 23.3333 22.4583 23.3333H21.0416ZM25.2916 23.3333C25.1037 23.3333 24.9236 23.408 24.7907 23.5408C24.6579 23.6736 24.5833 23.8538 24.5833 24.0417C24.5833 24.2295 24.6579 24.4097 24.7907 24.5425C24.9236 24.6754 25.1037 24.75 25.2916 24.75H26.7083C26.8961 24.75 27.0763 24.6754 27.2091 24.5425C27.342 24.4097 27.4166 24.2295 27.4166 24.0417C27.4166 23.8538 27.342 23.6736 27.2091 23.5408C27.0763 23.408 26.8961 23.3333 26.7083 23.3333H25.2916Z" fill="#3178D5"/>
</g>
</svg>
