<svg width="40" height="40" viewBox="0 0 40 40" fill="none" xmlns="http://www.w3.org/2000/svg">
<rect width="40" height="40" rx="10" fill="#C0B6F2"/>
<mask id="mask0" mask-type="alpha" maskUnits="userSpaceOnUse" x="0" y="0" width="40" height="40">
<rect width="40" height="40" rx="10" fill="white"/>
</mask>
<g mask="url(#mask0)">
<path fill-rule="evenodd" clip-rule="evenodd" d="M35.0625 18.375H32.1286L29.217 9.641C29.0894 9.25819 28.7312 9 28.3276 9H11.6724C11.2688 9 10.9106 9.25819 10.783 9.641L7.87138 18.375H4.9375C4.41975 18.375 4 18.7948 4 19.3125V26.8125C4 27.3302 4.41975 27.75 4.9375 27.75H35.0625C35.5802 27.75 36 27.3302 36 26.8125V19.3125C36 18.7948 35.5802 18.375 35.0625 18.375Z" fill="url(#paint0_linear)"/>
<path fill-rule="evenodd" clip-rule="evenodd" d="M28.1046 20.0293C28.4038 19.7751 28.5085 19.3734 28.3894 19.0161L26.5144 13.3911C26.3867 13.0082 26.0286 12.75 25.625 12.75H21.875C21.3573 12.75 20.9375 13.1697 20.9375 13.6875V19.3125C20.9375 19.8302 21.3573 20.25 21.875 20.25H27.4779C27.7058 20.25 27.9309 20.1769 28.1046 20.0293ZM12.5 22.125C9.91531 22.125 7.8125 24.2278 7.8125 26.8125C7.8125 29.3972 9.91531 31.5 12.5 31.5C15.0847 31.5 17.1875 29.3972 17.1875 26.8125C17.1875 24.2278 15.0847 22.125 12.5 22.125ZM22.8125 26.8125C22.8125 24.2278 24.9153 22.125 27.5 22.125C30.0847 22.125 32.1875 24.2278 32.1875 26.8125C32.1875 29.3972 30.0847 31.5 27.5 31.5C24.9153 31.5 22.8125 29.3972 22.8125 26.8125ZM26.5625 26.8125C26.5625 27.3302 26.9823 27.75 27.5 27.75C28.0177 27.75 28.4375 27.3302 28.4375 26.8125C28.4375 26.2948 28.0177 25.875 27.5 25.875C26.9823 25.875 26.5625 26.2948 26.5625 26.8125ZM11.5625 26.8125C11.5625 27.3302 11.9823 27.75 12.5 27.75C13.0177 27.75 13.4375 27.3302 13.4375 26.8125C13.4375 26.2948 13.0177 25.875 12.5 25.875C11.9823 25.875 11.5625 26.2948 11.5625 26.8125ZM14.375 12.75H18.125C18.6427 12.75 19.0625 13.1697 19.0625 13.6875V19.3125C19.0625 19.8302 18.6427 20.25 18.125 20.25H12.5221C12.2942 20.25 12.0691 20.1769 11.8954 20.0293C11.5962 19.7751 11.4916 19.3734 11.6106 19.0161L13.4856 13.3911C13.6133 13.0082 13.9714 12.75 14.375 12.75Z" fill="#EAE6FF"/>
</g>
<defs>
<linearGradient id="paint0_linear" x1="4" y1="9" x2="4" y2="27.75" gradientUnits="userSpaceOnUse">
<stop stop-color="#8A78D5"/>
<stop offset="1" stop-color="#5243AA"/>
</linearGradient>
</defs>
</svg>
