<svg width="75" height="75" viewBox="0 0 75 75" fill="none" xmlns="http://www.w3.org/2000/svg">
<rect width="75" height="75" rx="24" fill="#DDF6F7"/>
<path d="M50.3866 58.7333H56.6894V30.5513L50.3866 36.3426V58.7333Z" fill="#4D2D8F"/>
<path d="M41.8044 58.6112H48.1073V37.9189L41.8044 41.6092V58.6112Z" fill="#4D2D8F"/>
<path d="M33.2451 58.8779H39.5479V42.6494L33.2451 44.7431V58.8779Z" fill="#4D2D8F"/>
<path d="M24.4426 58.7751H30.7449V45.3057L24.4426 46.691V58.7751Z" fill="#4D2D8F"/>
<path d="M16 58.7803H22.3028V47.1626L16.0228 48.428L16 58.7803Z" fill="#4D2D8F"/>
<path d="M16.0229 46.0245C35.6047 44.8906 51.3705 29.3164 53.5836 21.294C53.1957 21.294 51.2458 21.2807 51.2458 21.2807L55.9754 17.0068L59.9999 21.6956C59.9999 21.6956 58.396 21.6813 58.0086 21.6813C55.0215 35.9004 34.6093 46.5779 16.0229 46.0245Z" fill="#6FE2E4"/>
<path d="M44.4564 25.1498C44.4564 25.4167 44.4432 25.683 44.4172 25.9488C44.3906 26.2141 44.3519 26.4778 44.2994 26.7399C44.2474 27.0015 44.1826 27.2604 44.1052 27.5157C44.0277 27.7709 43.938 28.0224 43.8356 28.2686C43.7338 28.5153 43.6197 28.7562 43.4939 28.9917C43.3682 29.2273 43.2308 29.456 43.0827 29.6778C42.9342 29.8996 42.7755 30.1139 42.6063 30.3203C42.437 30.5262 42.2577 30.7241 42.0693 30.9125C41.8804 31.1013 41.6831 31.2807 41.4767 31.4499C41.2703 31.6192 41.0559 31.7778 40.8341 31.9264C40.6123 32.0744 40.3837 32.2113 40.1481 32.3376C39.913 32.4634 39.6716 32.5774 39.4254 32.6793C39.1787 32.7817 38.9277 32.8714 38.672 32.9488C38.4168 33.0263 38.1584 33.091 37.8963 33.143C37.6347 33.195 37.371 33.2343 37.1052 33.2603C36.8393 33.2868 36.5735 33.2996 36.3066 33.2996C36.0398 33.2996 35.7734 33.2868 35.5076 33.2603C35.2418 33.2343 34.9781 33.195 34.7165 33.143C34.4549 33.091 34.196 33.0263 33.9408 32.9488C33.685 32.8714 33.4341 32.7817 33.1879 32.6793C32.9411 32.5774 32.7003 32.4634 32.4647 32.3376C32.2291 32.2113 32.0004 32.0744 31.7786 31.9264C31.5568 31.7778 31.3425 31.6192 31.1361 31.4499C30.9297 31.2807 30.7323 31.1013 30.5434 30.9125C30.3551 30.7241 30.1757 30.5262 30.0065 30.3203C29.8372 30.1139 29.6786 29.8996 29.53 29.6778C29.382 29.456 29.2446 29.2273 29.1188 28.9917C28.9931 28.7562 28.879 28.5153 28.7771 28.2686C28.6747 28.0224 28.585 27.7709 28.5076 27.5157C28.4301 27.2604 28.3654 27.0015 28.3134 26.7399C28.2614 26.4778 28.2221 26.2141 28.1961 25.9488C28.1696 25.683 28.1569 25.4167 28.1569 25.1498C28.1569 24.8829 28.1696 24.6165 28.1961 24.3513C28.2221 24.0854 28.2614 23.8217 28.3134 23.5601C28.3654 23.298 28.4301 23.0396 28.5076 22.7839C28.585 22.5287 28.6747 22.2777 28.7771 22.031C28.879 21.7843 28.9931 21.5434 29.1188 21.3083C29.2446 21.0728 29.382 20.8441 29.53 20.6223C29.6786 20.4 29.8372 20.1862 30.0065 19.9798C30.1757 19.7734 30.3551 19.576 30.5434 19.3871C30.7323 19.1982 30.9297 19.0194 31.1361 18.8501C31.3425 18.6809 31.5568 18.5217 31.7786 18.3737C32.0004 18.2251 32.2291 18.0882 32.4647 17.9625C32.7003 17.8367 32.9411 17.7227 33.1879 17.6203C33.4341 17.5184 33.685 17.4287 33.9408 17.3512C34.196 17.2738 34.4549 17.2091 34.7165 17.1565C34.9781 17.1045 35.2418 17.0658 35.5076 17.0393C35.7734 17.0133 36.0398 17 36.3066 17C36.5735 17 36.8393 17.0133 37.1052 17.0393C37.371 17.0658 37.6347 17.1045 37.8963 17.1565C38.1584 17.2091 38.4168 17.2738 38.672 17.3512C38.9277 17.4287 39.1787 17.5184 39.4254 17.6203C39.6716 17.7227 39.913 17.8367 40.1481 17.9625C40.3837 18.0882 40.6123 18.2251 40.8341 18.3737C41.0559 18.5217 41.2703 18.6809 41.4767 18.8501C41.6831 19.0194 41.8804 19.1982 42.0693 19.3871C42.2577 19.576 42.437 19.7734 42.6063 19.9798C42.7755 20.1862 42.9342 20.4 43.0827 20.6223C43.2308 20.8441 43.3682 21.0728 43.4939 21.3083C43.6197 21.5434 43.7338 21.7843 43.8356 22.031C43.938 22.2777 44.0277 22.5287 44.1052 22.7839C44.1826 23.0396 44.2474 23.298 44.2994 23.5601C44.3519 23.8217 44.3906 24.0854 44.4172 24.3513C44.4432 24.6165 44.4564 24.8829 44.4564 25.1498Z" fill="#DDF6F7"/>
<path d="M34.1614 20.4321H39.7378V21.7188H34.1614V20.4321Z" fill="#4D2D8F"/>
<path d="M32.8746 22.5767H39.7378V23.8633H32.8746V22.5767Z" fill="#4D2D8F"/>
<path d="M34.7805 26.4373H34.8049C36.3585 26.4373 38.0218 25.2302 38.0218 23.4347C38.0218 21.6387 36.3585 20.4321 34.8049 20.4321H32.8746V21.7188H34.8049C35.6146 21.7188 36.7352 22.3152 36.7352 23.4347C36.7352 24.5542 35.6146 25.1501 34.8049 25.1501H32.8746V26.5238L37.4037 30.2973H39.413L34.7805 26.4373Z" fill="#4D2D8F"/>
</svg>
