<svg width="29" height="10" viewBox="0 0 29 10" fill="none" xmlns="http://www.w3.org/2000/svg">
<path d="M11.9864 0.160645L10.575 9.43676H12.8323L14.2448 0.160645H11.9864Z" fill="white"/>
<path d="M8.68325 0.168943L6.47245 6.49499L6.23674 5.5398C5.80073 4.38891 4.56296 2.73603 3.1098 1.69437L5.13134 9.4301L7.51979 9.42555L11.0746 0.166992L8.68325 0.168943Z" fill="white"/>
<path d="M5.37923 0.833201C5.24803 0.268155 4.86775 0.0997468 4.39575 0.0795898H0.896094L0.867065 0.264254C3.59051 1.00421 5.39259 2.78713 6.14036 4.93092L5.37923 0.833201Z" fill="white"/>
<path d="M18.8231 1.93767C19.5616 1.92467 20.0969 2.10543 20.5126 2.29269L20.7163 2.39998L21.0217 0.389485C20.5747 0.20157 19.8739 0 18.9996 0C16.7691 0 15.1969 1.25819 15.1847 3.06126C15.1702 4.39357 16.3046 5.13743 17.1615 5.58153C18.0411 6.03669 18.336 6.32604 18.3319 6.73243C18.325 7.3534 17.6306 7.6382 16.9821 7.6382C16.0782 7.6382 15.598 7.4984 14.8567 7.15248L14.5658 7.00423L14.2482 9.0804C14.7765 9.33984 15.7513 9.56286 16.7632 9.57457C19.136 9.57457 20.678 8.33134 20.6943 6.40472C20.7041 5.3507 20.1021 4.54638 18.7976 3.8864C18.008 3.45595 17.525 3.16985 17.5296 2.7355C17.5296 2.34991 17.9395 1.93767 18.8231 1.93767Z" fill="white"/>
<path fill-rule="evenodd" clip-rule="evenodd" d="M25.0676 0.169922H26.8116L28.6381 9.44083H26.544C26.544 9.44083 26.3362 8.37511 26.2688 8.0513C26.0952 8.0513 25.3684 8.05021 24.684 8.04918C24.0754 8.04827 23.5003 8.0474 23.3782 8.0474C23.2905 8.29774 22.9038 9.44083 22.9038 9.44083H20.5334L23.885 0.939789C24.123 0.335079 24.5259 0.169922 25.0676 0.169922ZM24.9281 3.5575C24.9281 3.5575 24.2146 5.61741 24.0288 6.14995H25.9041L25.381 3.47167L25.2289 2.67189C25.1718 2.84269 25.0957 3.06437 25.0342 3.24331C24.9701 3.43019 24.9219 3.57045 24.9281 3.5575Z" fill="white"/>
</svg>
